<svg xmlns="http://www.w3.org/2000/svg" width="640" height="360" viewBox="0 0 640 360">
  <defs>
    <linearGradient id="g" x1="0" y1="0" x2="1" y2="1">
      <stop offset="0" stop-color="#00d4ff" stop-opacity="0.22"/>
      <stop offset="1" stop-color="#00d4ff" stop-opacity="0.04"/>
    </linearGradient>
    <pattern id="grid" width="40" height="40" patternUnits="userSpaceOnUse">
      <path d="M40 0H0V40" fill="none" stroke="#00d4ff" stroke-opacity="0.10" stroke-width="1"/>
    </pattern>
  </defs>
  <rect width="640" height="360" fill="#0d0d1a"/>
  <rect width="640" height="360" fill="url(#grid)"/>
  <rect width="640" height="360" fill="url(#g)"/>
  <rect x="0.5" y="0.5" width="639" height="359" fill="none" stroke="#00d4ff" stroke-opacity="0.35"/>
  <g transform="translate(292 78) scale(6.5)" fill="none" stroke="#00d4ff" stroke-width="1.4"
     stroke-linecap="round" stroke-linejoin="round"><circle cx="12" cy="12" r="3"/><path d="M19.4 15a1.65 1.65 0 0 0 .33 1.82l.06.06a2 2 0 1 1-2.83 2.83l-.06-.06a1.65 1.65 0 0 0-1.82-.33 1.65 1.65 0 0 0-1 1.51V21a2 2 0 1 1-4 0v-.09A1.65 1.65 0 0 0 9 19.4a1.65 1.65 0 0 0-1.82.33l-.06.06a2 2 0 1 1 -2.83-2.83l.06-.06a1.65 1.65 0 0 0 .33-1.82 1.65 1.65 0 0 0-1.51-1H3a2 2 0 1 1 0-4h.09A1.65 1.65 0 0 0 4.6 9a1.65 1.65 0 0 0-.33-1.82l-.06-.06a2 2 0 1 1 2.83-2.83l.06.06a1.65 1.65 0 0 0 1.82.33H9a1.65 1.65 0 0 0 1 -1.51V3a2 2 0 1 1 4 0v.09a1.65 1.65 0 0 0 1 1.51 1.65 1.65 0 0 0 1.82-.33l.06-.06a2 2 0 1 1 2.83 2.83l-.06 -.06a1.65 1.65 0 0 0-.33 1.82V9a1.65 1.65 0 0 0 1.51 1H21a2 2 0 1 1 0 4h-.09a1.65 1.65 0 0 0-1.51 1z"/></g>
  <text x="320" y="262" text-anchor="middle" font-family="PingFang SC, Microsoft YaHei, sans-serif"
     font-size="26" font-weight="600" fill="#e8e8f0">钢筋绑扎密度检测</text>
  <text x="320" y="296" text-anchor="middle" font-family="PingFang SC, Microsoft YaHei, sans-serif"
     font-size="15" fill="#8a8a9e">建筑 / 监理 · 项目现场图</text>
  <text x="320" y="326" text-anchor="middle" font-family="PingFang SC, Microsoft YaHei, sans-serif"
     font-size="12" fill="#5a5a6e">临时占位图 · 后期替换为真实图片</text>
</svg>
